<svg xmlns="http://www.w3.org/2000/svg" viewBox="0 0 64 64" fill="none">
  <defs>
    <linearGradient id="buekMarkGrad" x1="8" y1="6" x2="56" y2="58" gradientUnits="userSpaceOnUse">
      <stop stop-color="#38BDF8"/>
      <stop offset="0.5" stop-color="#3B82F6"/>
      <stop offset="1" stop-color="#7C3AED"/>
    </linearGradient>
    <clipPath id="buekMarkClip">
      <path d="M32 0C14.327 0 0 14.327 0 32s14.327 32 32 32 32-14.327 32-32S49.673 0 32 0z"/>
    </clipPath>
  </defs>
  <g clip-path="url(#buekMarkClip)">
    <rect width="64" height="64" fill="url(#buekMarkGrad)"/>
    <path d="M18 14h12c6.627 0 12 5.373 12 12s-5.373 12-12 12H26v14H18V14zm8 8v8h4c2.21 0 4-1.79 4-4s-1.79-4-4-4h-4z" fill="#fff"/>
    <rect x="30" y="30" width="8" height="8" rx="1.5" fill="#fff" opacity="0.95"/>
    <path d="M44 18h3v2h-3v-2zm6 4h3v2h-3v-2zm-8 4h3v2h-3v-2z" fill="#fff" opacity="0.85"/>
  </g>
</svg>
